<?xml version="1.0" encoding="utf-8"?>
<!-- Generator: Adobe Illustrator 18.1.1, SVG Export Plug-In . SVG Version: 6.00 Build 0)  -->
<svg version="1.0" xmlns="http://www.w3.org/2000/svg" xmlns:xlink="http://www.w3.org/1999/xlink" x="0px" y="0px"
	 viewBox="0 0 117.2 24" enable-background="new 0 0 117.2 24" xml:space="preserve">
<g id="Logistics">
</g>
<g id="Forma_1">
</g>
<g id="Forma_1_copy_1_">
	<g>
		<path fill="#34CCFF" d="M3.8,9.6H0V7.1h10.4v2.6H6.6v10H3.8V9.6z"/>
		<path fill="#34CCFF" d="M10.3,10H13V12c0.6-1.3,1.5-2.2,3.1-2.1v2.9H16c-1.8,0-2.9,1.1-2.9,3.4v3.6h-2.7V10z"/>
		<path fill="#34CCFF" d="M15.9,16.9c0-2.1,1.6-3.1,3.9-3.1c1,0,1.7,0.2,2.4,0.4V14c0-1.1-0.7-1.8-2.1-1.8c-1,0-1.8,0.2-2.7,0.5
			l-0.7-2.1c1.1-0.5,2.1-0.8,3.7-0.8c1.5,0,2.6,0.4,3.3,1.1c0.7,0.7,1,1.8,1,3.1v5.6h-2.6v-1c-0.7,0.7-1.6,1.2-2.9,1.2
			C17.4,19.9,15.9,18.8,15.9,16.9z M22.2,16.3v-0.5c-0.5-0.2-1.1-0.4-1.7-0.4c-1.2,0-1.9,0.5-1.9,1.4c0,0.7,0.6,1.2,1.5,1.2
			C21.3,18,22.2,17.3,22.2,16.3z"/>
		<path fill="#34CCFF" d="M26.2,10H29v1.4c0.6-0.8,1.4-1.5,2.8-1.5c2.1,0,3.3,1.4,3.3,3.6v6.2h-2.7v-5.4c0-1.3-0.6-2-1.7-2
			c-1,0-1.7,0.7-1.7,2v5.4h-2.7V10z"/>
		<path fill="#34CCFF" d="M35.8,18.4l1.2-1.8c1,0.8,2.1,1.2,3,1.2c0.8,0,1.2-0.3,1.2-0.8c0-0.6-0.9-0.8-2-1.1
			c-1.4-0.4-2.9-1-2.9-2.9c0-2,1.6-3.1,3.5-3.1c1.2,0,2.6,0.4,3.6,1.1l-1,1.9c-1-0.6-1.9-0.9-2.6-0.9c-0.7,0-1,0.3-1,0.7
			c0,0.5,0.9,0.8,2,1.2c1.4,0.5,2.9,1.1,2.9,2.9c0,2.1-1.6,3.1-3.7,3.1C38.6,19.9,37.1,19.4,35.8,18.4z"/>
		<path fill="#FFFFFF" d="M44.7,14.9c0-2.8,2.1-5,5.1-5c1.8,0,2.9,0.7,3.8,1.7l-1.6,1.6c-0.6-0.6-1.2-1-2.3-1
			c-1.4,0-2.3,1.2-2.3,2.7c0,1.5,1,2.7,2.4,2.7c0.9,0,1.5-0.4,2.2-1l1.6,1.6c-0.9,1-2,1.8-3.9,1.8C46.8,19.9,44.7,17.7,44.7,14.9z"
			/>
		<path fill="#FFFFFF" d="M53.9,16.9c0-2.1,1.6-3.1,3.9-3.1c1,0,1.7,0.2,2.4,0.4V14c0-1.1-0.7-1.8-2.1-1.8c-1,0-1.8,0.2-2.7,0.5
			l-0.7-2.1c1.1-0.5,2.1-0.8,3.7-0.8c1.5,0,2.6,0.4,3.3,1.1c0.7,0.7,1,1.8,1,3.1v5.6h-2.6v-1c-0.7,0.7-1.6,1.2-2.9,1.2
			C55.4,19.9,53.9,18.8,53.9,16.9z M60.2,16.3v-0.5c-0.5-0.2-1.1-0.4-1.7-0.4c-1.2,0-1.9,0.5-1.9,1.4c0,0.7,0.6,1.2,1.5,1.2
			C59.3,18,60.2,17.3,60.2,16.3z"/>
		<path fill="#FFFFFF" d="M64.3,10H67V12c0.6-1.3,1.5-2.2,3.1-2.1v2.9h-0.1c-1.8,0-2.9,1.1-2.9,3.4v3.6h-2.7V10z"/>
		<path fill="#FFFFFF" d="M70.8,21.6l0.9-2.1c1,0.6,2,0.9,3.3,0.9c1.9,0,2.8-0.9,2.8-2.6v-0.5c-0.8,1-1.7,1.6-3.2,1.6
			c-2.3,0-4.3-1.6-4.3-4.5c0-2.9,2.1-4.5,4.3-4.5c1.5,0,2.4,0.6,3.1,1.4V10h2.7v7.5c0,1.7-0.4,3-1.2,3.8c-0.9,0.9-2.3,1.3-4.2,1.3
			C73.5,22.6,72,22.2,70.8,21.6z M77.7,14.4c0-1.3-1-2.2-2.4-2.2C74,12.1,73,13,73,14.4c0,1.3,1,2.2,2.3,2.2
			C76.7,16.6,77.7,15.7,77.7,14.4z"/>
		<path fill="#FFFFFF" d="M81.5,14.9c0-2.8,2.2-5,5.2-5c3,0,5.2,2.2,5.2,5c0,2.8-2.2,5-5.2,5C83.7,19.9,81.5,17.7,81.5,14.9z
			 M89.2,14.9c0-1.4-1-2.7-2.5-2.7c-1.6,0-2.5,1.2-2.5,2.7c0,1.4,1,2.7,2.5,2.7C88.3,17.6,89.2,16.3,89.2,14.9z"/>
	</g>
	<g id="Forma_1_3_">
		<g>
			<path fill="#FFFFFF" d="M115,11.8c-0.7,0.8-1.3,1.6-1.8,2.7c-0.2,0.5-0.7,0.9-1.3,0.9c-0.6,0-1.1-0.3-1.3-0.9
				c-0.5-1.3-1.4-2.2-2.1-3.1c-0.2-0.2-0.4-0.4-0.6-0.7c0,0,0,0,0,0c-0.8,0.2-1.4,1.3-1,2.1c0.2,0.6,2,0.5,1.8,1.7
				c-0.1,1,1.2,1.3,1.7,1.2c0.5-0.1,1.2,0.8,0.8,1.1c-0.4,0.4-1,0.4-0.9,1.3c0,0.3,0.8,0.2,0.8,0.6c0,0.4-0.4,0.9-0.1,1.4
				c0.1,0.1,0.1,0.2,0.2,0.2c-1.6,1.4-3.7,2.3-6,2.3c-4.9,0-8.8-3.9-8.8-8.8c0-1.5,0.4-2.9,1-4.1c0,1.6,0.8,2.9,1.2,3.3
				c1.3,1.3,3.2,0.9,3.4,2c0.2,1.1-1.3,1.1-1.2,1.9c0.1,0.8,2.1,1,1.7,1.8c-0.6,1,0.4,1.1,0.1,2.3c-0.2,0.7,0.8,0.8,1.2,0.3
				c0.3-0.4,0.2-0.9,0.8-1.5c0.7-0.7,2.3-0.8,2.1-2c-0.3-2-2.2-2.3-3.1-2.8c-1-0.5-0.7-1.8-0.9-2.4c-0.3-0.9-1.3,0.2-1.8-0.3
				c-0.9-0.8,0.2-2,0.9-2c1.5,0,2,1.5,2.6,1.5c0.6,0,0.9-0.8,1-1.2c0.2-0.9-0.3-0.5-0.6-1c-0.3-0.6,1-1.2,1.6-1.7
				c0.1-0.1,0.1-0.1,0.2-0.2c0.2-0.3,0-0.5-0.4-0.7c-0.7-0.4-2-0.8-2-1.4c0-0.4,0.7-0.6,1.6-0.6c0.1,0,0.3,0,0.4,0
				c0.1-0.4,0.2-0.8,0.4-1.2C106,4,105.6,4,105.2,4c-5.5,0-10.1,4.5-10.1,10c0,5.5,4.5,10,10.1,10s10.1-4.5,10.1-10
				C115.2,13.2,115.1,12.5,115,11.8z"/>
		</g>
	</g>
	<g id="Forma_1_copy_3_">
		<g>
			<path fill="#34CCFF" d="M111.9,0c-2.8,0.3-4.8,3-4.3,5.8c0.5,2.8,3.1,3.7,4.4,6.9c0.1,0.3,0.5,0.3,0.6,0c1.4-3.5,4.5-4.2,4.5-7.9
				C117.2,2,114.8-0.2,111.9,0z M112.3,7.4c-1.4,0-2.6-1.1-2.6-2.5s1.1-2.5,2.6-2.5c1.4,0,2.6,1.1,2.6,2.5S113.8,7.4,112.3,7.4z"/>
		</g>
	</g>
</g>
</svg>
